<?xml version="1.0" encoding="UTF-8" standalone="no"?>
<svg
   xmlns:dc="http://purl.org/dc/elements/1.1/"
   xmlns:cc="http://creativecommons.org/ns#"
   xmlns:rdf="http://www.w3.org/1999/02/22-rdf-syntax-ns#"
   xmlns:svg="http://www.w3.org/2000/svg"
   xmlns="http://www.w3.org/2000/svg"
   xmlns:sodipodi="http://sodipodi.sourceforge.net/DTD/sodipodi-0.dtd"
   xmlns:inkscape="http://www.inkscape.org/namespaces/inkscape"
   id="Layer_1"
   enable-background="new 0 0 512.01 512.01"
   height="512"
   viewBox="0 0 512.01 512.01"
   width="512"
   version="1.1"
   sodipodi:docname="sell.svg"
   inkscape:version="1.0 (9f2f71dc58, 2020-08-02)">
  <metadata
     id="metadata17">
    <rdf:RDF>
      <cc:Work
         rdf:about="">
        <dc:format>image/svg+xml</dc:format>
        <dc:type
           rdf:resource="http://purl.org/dc/dcmitype/StillImage" />
      </cc:Work>
    </rdf:RDF>
  </metadata>
  <defs
     id="defs15" />
  <sodipodi:namedview
     pagecolor="#ffffff"
     bordercolor="#666666"
     borderopacity="1"
     objecttolerance="10"
     gridtolerance="10"
     guidetolerance="10"
     inkscape:pageopacity="0"
     inkscape:pageshadow="2"
     inkscape:window-width="2560"
     inkscape:window-height="1016"
     id="namedview13"
     showgrid="false"
     inkscape:zoom="1.6992188"
     inkscape:cx="256"
     inkscape:cy="256"
     inkscape:window-x="0"
     inkscape:window-y="27"
     inkscape:window-maximized="1"
     inkscape:current-layer="Layer_1" />
  <path
     d="m328.78 419.41h143.057l-13.042-312.979h-69.286v58.138h-30v-58.138h-101.453v58.138h-30v-58.138h-69.285l-3.818 91.514h173.827z"
     id="path2"
     style="fill:#ffffff" />
  <path
     d="m298.78 512.01v-284.065h-60.613v54.704c0 38.94-31.68 70.62-70.62 70.62s-70.621-31.68-70.621-70.62v-54.704h-60.611v284.011z"
     id="path4"
     style="fill:#ffffff" />
  <path
     d="m167.546 323.27c22.398 0 40.62-18.222 40.62-40.62v-54.704h-81.241v54.704c.001 22.397 18.223 40.62 40.621 40.62z"
     id="path6"
     style="fill:#ffffff" />
  <path
     d="m328.78 512.01h146.915l-2.608-62.6h-144.307z"
     id="path8"
     style="fill:#ffffff" />
  <path
     d="m258.056 80.726c0-27.97 22.756-50.726 50.726-50.726s50.726 22.755 50.726 50.726v25.654h30v-25.654c.001-44.513-36.213-80.726-80.726-80.726s-80.726 36.213-80.726 80.726v25.654h30z"
     id="path10"
     style="fill:#ffffff" />
</svg>
