<?xml version="1.0"?>
<svg xmlns="http://www.w3.org/2000/svg" height="512px" version="1.1" viewBox="-34 0 512 512.00002" width="512px" class=""><g><g id="surface1">
<path d="M 144.3125 0 L 299.921875 0 L 299.921875 30.117188 L 144.3125 30.117188 Z M 144.3125 0 " data-original="#000000" class="active-path" data-old_color="#000000" fill="#FFFFFF"/>
<path d="M 66.511719 105.664062 C 66.511719 100.140625 71.53125 95.371094 77.050781 95.371094 L 99.136719 95.371094 L 99.136719 40.15625 C 99.136719 34.636719 103.027344 30.117188 108.675781 30.117188 L 124.234375 30.117188 L 124.234375 25.097656 L 80.566406 25.097656 C 72.660156 25.097656 65.378906 29.617188 62.242188 36.894531 L 4.769531 166.902344 L 66.507812 166.902344 L 66.507812 105.664062 Z M 66.511719 105.664062 " data-original="#000000" class="active-path" data-old_color="#000000" fill="#FFFFFF"/>
<path d="M 135.152344 227.765625 C 123.609375 212.328125 117.585938 197.019531 114.699219 186.980469 L 0 186.980469 L 0 293.269531 C 0 315.355469 17.441406 333.804688 39.65625 333.804688 L 60.988281 333.804688 C 70.398438 288.628906 97.757812 251.105469 135.152344 227.765625 Z M 135.152344 227.765625 " data-original="#000000" class="active-path" data-old_color="#000000" fill="#FFFFFF"/>
<path d="M 345.097656 40.15625 L 345.097656 95.371094 L 367.183594 95.371094 C 372.707031 95.371094 377.726562 100.140625 377.726562 105.664062 L 377.726562 166.902344 L 439.464844 166.902344 L 381.992188 36.894531 C 378.730469 29.617188 371.574219 25.097656 363.671875 25.097656 L 320 25.097656 L 320 30.117188 L 335.5625 30.117188 C 341.207031 30.117188 345.097656 34.507812 345.097656 40.15625 Z M 345.097656 40.15625 " data-original="#000000" class="active-path" data-old_color="#000000" fill="#FFFFFF"/>
<path d="M 222.117188 222.871094 C 142.433594 222.871094 77.554688 287.75 77.554688 367.433594 C 77.554688 447.121094 142.433594 512 222.117188 512 C 301.804688 512 366.683594 447.121094 366.683594 367.433594 C 366.683594 287.75 301.804688 222.871094 222.117188 222.871094 Z M 268.421875 385.882812 L 228.894531 422.652344 C 227.011719 424.40625 224.5 425.285156 221.992188 425.285156 C 219.484375 425.285156 217.097656 424.40625 215.089844 422.652344 L 175.5625 385.882812 C 171.546875 382.117188 171.296875 375.71875 175.058594 371.703125 C 178.824219 367.6875 185.222656 367.433594 189.238281 371.199219 L 211.828125 392.28125 L 211.828125 319.875 C 211.828125 314.351562 216.34375 309.835938 221.867188 309.835938 C 227.386719 309.835938 231.90625 314.351562 231.90625 319.875 L 231.90625 392.28125 L 254.496094 371.199219 C 258.511719 367.433594 264.910156 367.6875 268.675781 371.703125 C 272.691406 375.71875 272.566406 381.992188 268.421875 385.882812 Z M 268.421875 385.882812 " data-original="#000000" class="active-path" data-old_color="#000000" fill="#FFFFFF"/>
<path d="M 309.082031 227.765625 C 346.476562 251.105469 373.835938 288.628906 383.246094 333.804688 L 404.582031 333.804688 C 426.667969 333.804688 444.234375 315.480469 444.234375 293.269531 L 444.234375 186.980469 L 329.539062 186.980469 C 326.652344 197.019531 320.628906 212.328125 309.082031 227.765625 Z M 309.082031 227.765625 " data-original="#000000" class="active-path" data-old_color="#000000" fill="#FFFFFF"/>
<path d="M 119.214844 50.195312 L 325.019531 50.195312 L 325.019531 95.371094 L 119.214844 95.371094 Z M 119.214844 50.195312 " data-original="#000000" class="active-path" data-old_color="#000000" fill="#FFFFFF"/>
<path d="M 86.589844 166.902344 L 122.351562 166.902344 C 127.121094 166.902344 131.261719 170.414062 132.140625 175.183594 C 132.140625 175.433594 136.910156 197.898438 152.972656 218.101562 C 174.054688 208.3125 197.394531 202.917969 222.117188 202.917969 C 246.839844 202.917969 270.179688 208.3125 291.261719 218.101562 C 307.449219 197.898438 311.96875 175.5625 312.09375 175.308594 C 312.972656 170.667969 317.113281 167.027344 321.882812 167.027344 L 357.648438 167.027344 L 357.648438 115.574219 L 86.589844 115.574219 Z M 86.589844 166.902344 " data-original="#000000" class="active-path" data-old_color="#000000" fill="#FFFFFF"/>
</g></g> </svg>
