<?xml version="1.0"?>
<svg xmlns="http://www.w3.org/2000/svg" height="512px" version="1.1" viewBox="-34 0 512 512.00002" width="512px" class=""><g><g id="surface1">
<path d="M 249.726562 281.601562 C 249.726562 280.21875 248.597656 278.589844 247.214844 278.589844 L 197.019531 278.589844 C 195.640625 278.589844 194.511719 280.21875 194.511719 281.601562 L 194.511719 292.390625 L 249.726562 292.390625 Z M 249.726562 281.601562 " data-original="#000000" class="active-path" data-old_color="#000000" fill="#FFFFFF"/>
<path d="M 66.511719 105.664062 C 66.511719 100.140625 71.53125 95.371094 77.050781 95.371094 L 99.136719 95.371094 L 99.136719 40.15625 C 99.136719 34.636719 103.027344 30.117188 108.675781 30.117188 L 124.234375 30.117188 L 124.234375 25.097656 L 80.566406 25.097656 C 72.660156 25.097656 65.378906 29.617188 62.242188 36.894531 L 4.769531 166.902344 L 66.507812 166.902344 L 66.507812 105.664062 Z M 66.511719 105.664062 " data-original="#000000" class="active-path" data-old_color="#000000" fill="#FFFFFF"/>
<path d="M 144.3125 0 L 299.921875 0 L 299.921875 30.117188 L 144.3125 30.117188 Z M 144.3125 0 " data-original="#000000" class="active-path" data-old_color="#000000" fill="#FFFFFF"/>
<path d="M 309.082031 227.765625 C 346.476562 251.105469 373.835938 288.628906 383.246094 333.804688 L 404.582031 333.804688 C 426.667969 333.804688 444.234375 315.480469 444.234375 293.269531 L 444.234375 186.980469 L 329.539062 186.980469 C 326.652344 197.019531 320.628906 212.328125 309.082031 227.765625 Z M 309.082031 227.765625 " data-original="#000000" class="active-path" data-old_color="#000000" fill="#FFFFFF"/>
<path d="M 119.214844 50.195312 L 325.019531 50.195312 L 325.019531 95.371094 L 119.214844 95.371094 Z M 119.214844 50.195312 " data-original="#000000" class="active-path" data-old_color="#000000" fill="#FFFFFF"/>
<path d="M 173.425781 455.527344 L 270.808594 455.527344 L 283.480469 312.472656 L 160.753906 312.472656 Z M 173.425781 455.527344 " data-original="#000000" class="active-path" data-old_color="#000000" fill="#FFFFFF"/>
<path d="M 135.152344 227.765625 C 123.609375 212.328125 117.585938 197.019531 114.699219 186.980469 L 0 186.980469 L 0 293.269531 C 0 315.355469 17.441406 333.804688 39.65625 333.804688 L 60.988281 333.804688 C 70.398438 288.628906 97.757812 251.105469 135.152344 227.765625 Z M 135.152344 227.765625 " data-original="#000000" class="active-path" data-old_color="#000000" fill="#FFFFFF"/>
<path d="M 222.117188 222.871094 C 142.433594 222.871094 77.554688 287.75 77.554688 367.433594 C 77.554688 447.121094 142.433594 512 222.117188 512 C 301.804688 512 366.683594 447.121094 366.683594 367.433594 C 366.683594 287.75 301.804688 222.871094 222.117188 222.871094 Z M 330.542969 302.433594 C 330.542969 307.953125 326.023438 312.472656 320.5 312.472656 L 303.6875 312.472656 L 290.007812 466.699219 C 289.503906 471.84375 285.238281 475.609375 279.96875 475.609375 L 164.140625 475.609375 C 158.996094 475.609375 154.605469 471.84375 154.101562 466.699219 L 140.546875 312.472656 L 123.734375 312.472656 C 118.210938 312.472656 113.695312 307.953125 113.695312 302.433594 C 113.695312 296.910156 118.210938 292.390625 123.734375 292.390625 L 174.429688 292.390625 L 174.429688 281.601562 C 174.429688 269.175781 184.59375 258.507812 197.019531 258.507812 L 247.214844 258.507812 C 259.636719 258.507812 269.804688 269.175781 269.804688 281.601562 L 269.804688 292.390625 L 320.5 292.390625 C 326.148438 292.390625 330.542969 296.910156 330.542969 302.433594 Z M 330.542969 302.433594 " data-original="#000000" class="active-path" data-old_color="#000000" fill="#FFFFFF"/>
<path d="M 86.589844 166.902344 L 122.351562 166.902344 C 127.121094 166.902344 131.261719 170.414062 132.140625 175.183594 C 132.140625 175.433594 136.910156 197.898438 152.972656 218.101562 C 174.054688 208.3125 197.394531 202.917969 222.117188 202.917969 C 246.839844 202.917969 270.179688 208.3125 291.261719 218.101562 C 307.324219 198.023438 311.96875 175.5625 312.09375 175.308594 C 313.097656 170.667969 317.113281 167.152344 321.882812 167.152344 L 357.648438 167.152344 L 357.648438 115.703125 L 86.589844 115.703125 Z M 86.589844 166.902344 " data-original="#000000" class="active-path" data-old_color="#000000" fill="#FFFFFF"/>
<path d="M 345.097656 40.15625 L 345.097656 95.371094 L 367.183594 95.371094 C 372.707031 95.371094 377.726562 100.140625 377.726562 105.664062 L 377.726562 166.902344 L 439.464844 166.902344 L 381.992188 36.894531 C 378.730469 29.617188 371.574219 25.097656 363.671875 25.097656 L 320 25.097656 L 320 30.117188 L 335.5625 30.117188 C 341.207031 30.117188 345.097656 34.507812 345.097656 40.15625 Z M 345.097656 40.15625 " data-original="#000000" class="active-path" data-old_color="#000000" fill="#FFFFFF"/>
</g></g> </svg>
