<?xml version="1.0" encoding="UTF-8" standalone="no"?>
<svg
   xmlns:dc="http://purl.org/dc/elements/1.1/"
   xmlns:cc="http://creativecommons.org/ns#"
   xmlns:rdf="http://www.w3.org/1999/02/22-rdf-syntax-ns#"
   xmlns:svg="http://www.w3.org/2000/svg"
   xmlns="http://www.w3.org/2000/svg"
   xmlns:sodipodi="http://sodipodi.sourceforge.net/DTD/sodipodi-0.dtd"
   xmlns:inkscape="http://www.inkscape.org/namespaces/inkscape"
   version="1.1"
   id="Capa_1"
   x="0px"
   y="0px"
   viewBox="0 0 512 512"
   style="enable-background:new 0 0 512 512;"
   xml:space="preserve"
   width="512px"
   height="512px"
   class=""
   sodipodi:docname="message-black.svg"
   inkscape:version="1.0.1 (3bc2e813f5, 2020-09-07)"><metadata
   id="metadata33"><rdf:RDF><cc:Work
       rdf:about=""><dc:format>image/svg+xml</dc:format><dc:type
         rdf:resource="http://purl.org/dc/dcmitype/StillImage" /></cc:Work></rdf:RDF></metadata><defs
   id="defs31" /><sodipodi:namedview
   pagecolor="#ffffff"
   bordercolor="#666666"
   borderopacity="1"
   objecttolerance="10"
   gridtolerance="10"
   guidetolerance="10"
   inkscape:pageopacity="0"
   inkscape:pageshadow="2"
   inkscape:window-width="2560"
   inkscape:window-height="1016"
   id="namedview29"
   showgrid="false"
   inkscape:zoom="1.6992188"
   inkscape:cx="256"
   inkscape:cy="256"
   inkscape:window-x="0"
   inkscape:window-y="27"
   inkscape:window-maximized="1"
   inkscape:current-layer="Capa_1"
   inkscape:document-rotation="0" /><g
   id="g26"
   style="fill:#212529;fill-opacity:1"><g
     id="g6"
     style="fill:#212529;fill-opacity:1">
	<g
   id="g4"
   style="fill:#212529;fill-opacity:1">
		<path
   d="M467,61H45c-6.927,0-13.412,1.703-19.279,4.51L255,294.789l51.389-49.387c0,0,0.004-0.005,0.005-0.007    c0.001-0.002,0.005-0.004,0.005-0.004L486.286,65.514C480.418,62.705,473.929,61,467,61z"
   data-original="#000000"
   class="active-path"
   data-old_color="#000000"
   fill="#FFFFFF"
   id="path2"
   style="fill:#212529;fill-opacity:1" />
	</g>
</g><g
     id="g12"
     style="fill:#212529;fill-opacity:1">
	<g
   id="g10"
   style="fill:#212529;fill-opacity:1">
		<path
   d="M507.496,86.728L338.213,256.002L507.49,425.279c2.807-5.867,4.51-12.352,4.51-19.279V106    C512,99.077,510.301,92.593,507.496,86.728z"
   data-original="#000000"
   class="active-path"
   data-old_color="#000000"
   fill="#FFFFFF"
   id="path8"
   style="fill:#212529;fill-opacity:1" />
	</g>
</g><g
     id="g18"
     style="fill:#212529;fill-opacity:1">
	<g
   id="g16"
   style="fill:#212529;fill-opacity:1">
		<path
   d="M4.51,86.721C1.703,92.588,0,99.073,0,106v300c0,6.923,1.701,13.409,4.506,19.274L173.789,256L4.51,86.721z"
   data-original="#000000"
   class="active-path"
   data-old_color="#000000"
   fill="#FFFFFF"
   id="path14"
   style="fill:#212529;fill-opacity:1" />
	</g>
</g><g
     id="g24"
     style="fill:#212529;fill-opacity:1">
	<g
   id="g22"
   style="fill:#212529;fill-opacity:1">
		<path
   d="M317.002,277.213l-51.396,49.393c-2.93,2.93-6.768,4.395-10.605,4.395s-7.676-1.465-10.605-4.395L195,277.211    L25.714,446.486C31.582,449.295,38.071,451,45,451h422c6.927,0,13.412-1.703,19.279-4.51L317.002,277.213z"
   data-original="#000000"
   class="active-path"
   data-old_color="#000000"
   fill="#FFFFFF"
   id="path20"
   style="fill:#212529;fill-opacity:1" />
	</g>
</g></g> </svg>
