<?xml version="1.0"?>
<svg xmlns="http://www.w3.org/2000/svg" height="512" viewBox="0 0 56 56" width="512"><g><g id="Page-1" fill="none" fill-rule="evenodd"><g id="092---Newsletter-Email" fill="rgb(0,0,0)" fill-rule="nonzero"><path id="Rectangle-path" d="m14 17h28.001v4h-28.001z" data-original="#000000" class="active-path" style="fill:#FFFFFF" data-old_color="#000000"/><path id="Shape" d="m-.00000065 23.079.00000065 30.921c-.00021887.2703114.05491339.537805.162.786l19.814-15.786zm3.00000065 23.921c-.55228475 0-1-.4477153-1-1v-15c0-.5522847.44771525-1 1-1s1 .4477153 1 1v15c0 .5522847-.44771525 1-1 1z" data-original="#000000" class="active-path" style="fill:#FFFFFF" data-old_color="#000000"/><path id="Shape" d="m8 15.921-7.332 5.132 7.332 5.844z" data-original="#000000" class="active-path" style="fill:#FFFFFF" data-old_color="#000000"/><path id="Shape" d="m48 15.921v10.976l7.332-5.844z" data-original="#000000" class="active-path" style="fill:#FFFFFF" data-old_color="#000000"/><path id="Shape" d="m36.024 39 19.814 15.786c.1070866-.248195.1622189-.5156886.162-.786l.0000006-30.921zm17.976 7c0 .5522847-.4477153 1-1 1s-1-.4477153-1-1v-15c0-.5522847.4477153-1 1-1s1 .4477153 1 1z" data-original="#000000" class="active-path" style="fill:#FFFFFF" data-old_color="#000000"/><path id="Shape" d="m24.887 35.088c1.8196202-1.4559027 4.4053798-1.4559027 6.225 0l3.307 2.634 11.581-9.231v-27.491c0-.55228475-.4477153-1-1-1h-34c-.5522847 0-1 .44771525-1 1v27.491l11.581 9.231zm16.113-32.088c1.071823.00177841 2.0619541.57300791 2.6 1.5.2561528.47599334.0876904 1.06938359-.3803603 1.33977682-.4680507.27039322-1.0662521.11990529-1.3506397-.33977682-.2424614-.41995043-.7512754-.60542711-1.2071135-.44002598-.455838.16540114-.7273175.63400785-.6440595 1.11172531s.4972567.82685699.982173.82830067c1.4556384.00093362 2.7005654 1.0466857 2.9527216 2.48031794.2521561 1.43363226-.5612283 2.84141286-1.9291876 3.33897846-1.3679593.4975655-2.8957143-.0586764-3.623534-1.3192964-.2561528-.4759933-.0876904-1.0693836.3803603-1.3397768.4680507-.27039324 1.0662521-.1199053 1.3506397.3397768.2424614.4199504.7512754.6054271 1.2071135.440026.455838-.1654012.7273175-.6340079.6440595-1.11172533-.083258-.47771746-.4972567-.82685699-.982173-.82830067-1.6568542 0-3-1.34314575-3-3s1.3431458-3 3-3zm-12.124.008c.5478221-.06832198 1.0473712.32021625 1.116.868l.591 4.723.517-1.046c.187968-.31527061.5279475-.50839059.895-.50839059s.707032.19311998.895.50839059l.522 1.046.591-4.723c.0800921-.53712636.5742283-.91215521 1.1130995-.8447963.5388713.06735891.9254885.55248193.8709005 1.0927963l-1 8c-.0548555.4368927-.3890264.7864931-.823.861-.0541452.0096209-.1090079.0146388-.164.015-.3808256.0020788-.7297741-.2123306-.9-.553l-1.1-2.211-1.1 2.211c-.1969228.3944054-.6288844.6133352-1.0633984.5389589-.4345139-.0743762-.769068-.4245114-.8236016-.8619589l-1-8c-.0684591-.54610275.3172384-1.04487262.863-1.116zm-8.876.992c0-.55228475.4477153-1 1-1h4c.5522847 0 1 .44771525 1 1s-.4477153 1-1 1h-3v2h1c.5522847 0 1 .44771525 1 1s-.4477153 1-1 1h-1v2h3c.5522847 0 1 .4477153 1 1s-.4477153 1-1 1h-4c-.5522847 0-1-.4477153-1-1zm-8 0c-.0052636-.46823782.3151034-.87742618.770926-.98466446.4558227-.10723828.9250221.11619422 1.129074.53766446l2.1 4.211v-3.764c0-.55228475.4477153-1 1-1s1 .44771525 1 1v8c.0003755.463985-.3184539.8672836-.77.974-.075497.0169813-.1526173.0256992-.23.026-.379026.0001766-.7255754-.2139484-.895-.553l-2.105-4.211v3.764c0 .5522847-.4477153 1-1 1s-1-.4477153-1-1zm0 13c0-1.1045695.8954305-2 2-2h28c1.1045695 0 2 .8954305 2 2v4c0 1.1045695-.8954305 2-2 2h-28c-1.1045695 0-2-.8954305-2-2zm0 9c0-.5522847.4477153-1 1-1h30c.5522847 0 1 .4477153 1 1s-.4477153 1-1 1h-30c-.5522847 0-1-.4477153-1-1zm3 4c0-.5522847.4477153-1 1-1h24c.5522847 0 1 .4477153 1 1s-.4477153 1-1 1h-24c-.5522847 0-1-.4477153-1-1z" data-original="#000000" class="active-path" style="fill:#FFFFFF" data-old_color="#000000"/><path id="Shape" d="m26.132 36.653-24.267 19.333c.046 0 .089.014.135.014h52c.046 0 .089-.01.135-.014l-24.268-19.334c-1.0918484-.8736988-2.6436196-.8732833-3.735.001zm12.868 16.347c0 .5522847-.4477153 1-1 1h-20c-.5522847 0-1-.4477153-1-1s.4477153-1 1-1h20c.5522847 0 1 .4477153 1 1z" data-original="#000000" class="active-path" style="fill:#FFFFFF" data-old_color="#000000"/></g></g></g> </svg>
