<?xml version="1.0" encoding="UTF-8" standalone="no"?>
<svg
   xmlns:dc="http://purl.org/dc/elements/1.1/"
   xmlns:cc="http://creativecommons.org/ns#"
   xmlns:rdf="http://www.w3.org/1999/02/22-rdf-syntax-ns#"
   xmlns:svg="http://www.w3.org/2000/svg"
   xmlns="http://www.w3.org/2000/svg"
   xmlns:sodipodi="http://sodipodi.sourceforge.net/DTD/sodipodi-0.dtd"
   xmlns:inkscape="http://www.inkscape.org/namespaces/inkscape"
   id="bold"
   enable-background="new 0 0 24 24"
   height="512px"
   viewBox="0 0 24 24"
   width="512px"
   version="1.1"
   sodipodi:docname="post-black.svg"
   inkscape:version="1.0.1 (3bc2e813f5, 2020-09-07)">
  <metadata
     id="metadata19">
    <rdf:RDF>
      <cc:Work
         rdf:about="">
        <dc:format>image/svg+xml</dc:format>
        <dc:type
           rdf:resource="http://purl.org/dc/dcmitype/StillImage" />
        <dc:title></dc:title>
      </cc:Work>
    </rdf:RDF>
  </metadata>
  <defs
     id="defs17" />
  <sodipodi:namedview
     pagecolor="#ffffff"
     bordercolor="#666666"
     borderopacity="1"
     objecttolerance="10"
     gridtolerance="10"
     guidetolerance="10"
     inkscape:pageopacity="0"
     inkscape:pageshadow="2"
     inkscape:window-width="2560"
     inkscape:window-height="1016"
     id="namedview15"
     showgrid="false"
     inkscape:zoom="1.6992188"
     inkscape:cx="256"
     inkscape:cy="256"
     inkscape:window-x="0"
     inkscape:window-y="27"
     inkscape:window-maximized="1"
     inkscape:current-layer="bold" />
  <g
     id="g12"
     style="stroke-width:0.99998437;stroke-miterlimit:4;stroke-dasharray:none;fill:#212529;fill-opacity:1">
    <path
       d="m11.25 8h-5.5c-.965 0-1.75.785-1.75 1.75v5.5c0 .965.785 1.75 1.75 1.75h5.5c.965 0 1.75-.785 1.75-1.75v-5.5c0-.965-.785-1.75-1.75-1.75zm-5.5 1.5h5.5c.138 0 .25.112.25.25v2.585c-.728-.489-1.81-.382-2.366.326l-.519.649c-.161.198-.32.073-.375.019-.684-.684-1.797-.684-2.48 0l-.26.26v-3.839c0-.138.112-.25.25-.25z"
       data-original="#000000"
       class="active-path"
       data-old_color="#000000"
       fill="#FFFFFF"
       id="path2"
       style="stroke-width:0.99998437;stroke-miterlimit:4;stroke-dasharray:none;fill:#212529;fill-opacity:1" />
    <path
       d="m21 1h-18c-1.654 0-3 1.346-3 3v16c0 1.654 1.346 3 3 3h18c1.654 0 3-1.346 3-3v-16c0-1.654-1.346-3-3-3zm0 20h-18c-.551 0-1-.448-1-1v-14h20v14c0 .552-.449 1-1 1z"
       data-original="#000000"
       class="active-path"
       data-old_color="#000000"
       fill="#FFFFFF"
       id="path4"
       style="stroke-width:0.99998437;stroke-miterlimit:4;stroke-dasharray:none;fill:#212529;fill-opacity:1" />
    <path
       d="m19 12h-4c-.552 0-1-.448-1-1s.448-1 1-1h4c.552 0 1 .448 1 1s-.448 1-1 1z"
       data-original="#000000"
       class="active-path"
       data-old_color="#000000"
       fill="#FFFFFF"
       id="path6"
       style="stroke-width:0.99998437;stroke-miterlimit:4;stroke-dasharray:none;fill:#212529;fill-opacity:1" />
    <path
       d="m19 16h-4c-.552 0-1-.448-1-1s.448-1 1-1h4c.552 0 1 .448 1 1s-.448 1-1 1z"
       data-original="#000000"
       class="active-path"
       data-old_color="#000000"
       fill="#FFFFFF"
       id="path8"
       style="stroke-width:0.99998437;stroke-miterlimit:4;stroke-dasharray:none;fill:#212529;fill-opacity:1" />
    <path
       d="m19 20h-14c-.552 0-1-.448-1-1s.448-1 1-1h14c.552 0 1 .448 1 1s-.448 1-1 1z"
       data-original="#000000"
       class="active-path"
       data-old_color="#000000"
       fill="#FFFFFF"
       id="path10"
       style="stroke-width:0.99998437;stroke-miterlimit:4;stroke-dasharray:none;fill:#212529;fill-opacity:1" />
  </g>
</svg>
