<?xml version="1.0" encoding="UTF-8" standalone="no"?>
<svg
   xmlns:dc="http://purl.org/dc/elements/1.1/"
   xmlns:cc="http://creativecommons.org/ns#"
   xmlns:rdf="http://www.w3.org/1999/02/22-rdf-syntax-ns#"
   xmlns:svg="http://www.w3.org/2000/svg"
   xmlns="http://www.w3.org/2000/svg"
   xmlns:sodipodi="http://sodipodi.sourceforge.net/DTD/sodipodi-0.dtd"
   xmlns:inkscape="http://www.inkscape.org/namespaces/inkscape"
   inkscape:version="1.0 (6e3e5246a0, 2020-05-07)"
   sodipodi:docname="presentation.svg"
   version="1.1"
   width="512"
   viewBox="0 0 24 24"
   height="512"
   enable-background="new 0 0 24 24"
   id="bold">
  <metadata
     id="metadata17">
    <rdf:RDF>
      <cc:Work
         rdf:about="">
        <dc:format>image/svg+xml</dc:format>
        <dc:type
           rdf:resource="http://purl.org/dc/dcmitype/StillImage" />
      </cc:Work>
    </rdf:RDF>
  </metadata>
  <defs
     id="defs15" />
  <sodipodi:namedview
     inkscape:current-layer="bold"
     inkscape:window-maximized="1"
     inkscape:window-y="27"
     inkscape:window-x="0"
     inkscape:cy="190.17701"
     inkscape:cx="284.74242"
     inkscape:zoom="1.2015291"
     showgrid="false"
     id="namedview13"
     inkscape:window-height="1016"
     inkscape:window-width="2560"
     inkscape:pageshadow="2"
     inkscape:pageopacity="0"
     guidetolerance="10"
     gridtolerance="10"
     objecttolerance="10"
     borderopacity="1"
     bordercolor="#666666"
     pagecolor="#ffffff" />
  <path
     style="fill:#ffffff"
     id="path2"
     d="m16.249 24c-.186 0-.375-.052-.542-.161l-4.25-2.75c-.463-.3-.596-.919-.296-1.383.3-.463.919-.596 1.383-.296l4.25 2.75c.463.3.596.919.296 1.383-.192.296-.513.457-.841.457z" />
  <path
     style="fill:#ffffff"
     id="path4"
     d="m7.751 24c-.328 0-.649-.161-.84-.457-.3-.464-.167-1.083.296-1.383l4.25-2.75c.464-.301 1.083-.167 1.383.296.3.464.167 1.083-.296 1.383l-4.25 2.75c-.169.109-.357.161-.543.161z" />
  <path
     style="fill:#ffffff"
     id="path6"
     d="m11 19v4c0 .552.448 1 1 1s1-.448 1-1v-4z" />
  <path
     style="fill:#ffffff"
     id="path8"
     d="m21.75 6.5h-19.5c-.171 0-.336-.025-.5-.051v9.801c0 .965.785 1.75 1.75 1.75h17c.965 0 1.75-.785 1.75-1.75v-9.801c-.164.026-.329.051-.5.051zm-3.728 3.135-3.818 4.643c-.323.393-.89.481-1.317.204l-2.193-1.423-3.247 3.158c-.194.189-.446.283-.697.283-.261 0-.521-.101-.717-.303-.385-.396-.376-1.029.02-1.414l3.818-3.714c.333-.326.848-.377 1.242-.122l2.114 1.371 3.251-3.953c.351-.426.982-.487 1.408-.137.426.351.487.98.136 1.407z" />
  <path
     style="fill:#ffffff"
     id="path10"
     d="m21.75 5.5h-19.5c-1.241 0-2.25-1.009-2.25-2.25s1.009-2.25 2.25-2.25h19.5c1.241 0 2.25 1.009 2.25 2.25s-1.009 2.25-2.25 2.25z" />
</svg>
