<?xml version="1.0" encoding="UTF-8" standalone="no"?>
<svg
   xmlns:dc="http://purl.org/dc/elements/1.1/"
   xmlns:cc="http://creativecommons.org/ns#"
   xmlns:rdf="http://www.w3.org/1999/02/22-rdf-syntax-ns#"
   xmlns:svg="http://www.w3.org/2000/svg"
   xmlns="http://www.w3.org/2000/svg"
   xmlns:sodipodi="http://sodipodi.sourceforge.net/DTD/sodipodi-0.dtd"
   xmlns:inkscape="http://www.inkscape.org/namespaces/inkscape"
   inkscape:version="1.0 (6e3e5246a0, 2020-05-07)"
   sodipodi:docname="euro.svg"
   xml:space="preserve"
   style="enable-background:new 0 0 456.152 456.152;"
   viewBox="0 0 456.152 456.152"
   y="0px"
   x="0px"
   id="Capa_1"
   version="1.1"><metadata
   id="metadata154"><rdf:RDF><cc:Work
       rdf:about=""><dc:format>image/svg+xml</dc:format><dc:type
         rdf:resource="http://purl.org/dc/dcmitype/StillImage" /></cc:Work></rdf:RDF></metadata><defs
   id="defs152" /><sodipodi:namedview
   inkscape:current-layer="Capa_1"
   inkscape:window-maximized="1"
   inkscape:window-y="27"
   inkscape:window-x="0"
   inkscape:cy="228.076"
   inkscape:cx="228.076"
   inkscape:zoom="1.8261457"
   showgrid="false"
   id="namedview150"
   inkscape:window-height="1016"
   inkscape:window-width="2560"
   inkscape:pageshadow="2"
   inkscape:pageopacity="0"
   guidetolerance="10"
   gridtolerance="10"
   objecttolerance="10"
   borderopacity="1"
   bordercolor="#666666"
   pagecolor="#ffffff" />
<g
   style="fill:#ffffff"
   id="g105">
	<g
   style="fill:#ffffff"
   id="g103">
		<path
   style="fill:#ffffff"
   id="path101"
   d="M264.651,292.901c-25.8,9.9-54.9,3.7-74.4-15.9c-4-4-7.5-8.4-10.4-13.3h79.2c5.5,0,10-4.5,10-10s-4.5-10-10-10h-87.4    c-1.7-6.9-2.2-14-1.6-21h94.3c5.5,0,10-4.5,10-10s-4.5-10-10-10h-89.7c3.4-9,8.8-17.1,15.6-23.9c19.5-19.6,48.6-25.9,74.4-16    c5.2,2,10.9-0.6,12.9-5.7c2-5.1-0.6-10.9-5.7-12.9c-33.2-12.7-70.7-4.6-95.7,20.6c-10.6,10.5-18.3,23.6-22.6,37.9h-9.1    c-5.5,0-10,4.5-10,10s4.5,10,10,10h5.6c-0.5,7,0,14.1,1.3,21h-6.8c-5.5,0-10,4.5-10,10s4.5,10,10,10h12.9    c4.4,11,10.7,19.4,18.7,27.4c25.1,25.1,62.6,33.1,95.7,20.4c5.1-2,7.7-7.8,5.7-12.9    C275.551,293.501,269.751,290.901,264.651,292.901z" />
	</g>
</g>
<g
   id="g111">
	<g
   style="fill:#ffffff"
   id="g109">
		<path
   style="fill:#ffffff"
   id="path107"
   d="M389.751,67.601c-0.3-0.3-0.6-0.6-0.8-0.8c-42.6-43-100.6-67-161.1-66.8c-125.8,0-227.8,102-227.8,227.9    c0,60.4,24,118.4,66.7,161.1c88.8,89.2,233,89.6,322.2,0.8S478.551,156.801,389.751,67.601z M227.851,435.701    c-114.6,0-207.9-93.2-207.9-207.8s93.3-207.9,207.9-207.9s207.8,93.2,207.8,207.8S342.451,435.701,227.851,435.701z" />
	</g>
</g>
<g
   style="fill:#ffffff"
   id="g117">
	<g
   style="fill:#ffffff"
   id="g115">
		<path
   style="fill:#ffffff"
   id="path113"
   d="M227.851,53.401c-96.2,0-174.4,78.2-174.4,174.4s78.2,174.4,174.4,174.4s174.4-78.2,174.4-174.4    S324.051,53.401,227.851,53.401z M227.851,382.201c-85.1,0-154.4-69.3-154.4-154.4s69.3-154.4,154.4-154.4s154.4,69.3,154.4,154.4    S312.951,382.201,227.851,382.201z" />
	</g>
</g>
<g
   id="g119">
</g>
<g
   id="g121">
</g>
<g
   id="g123">
</g>
<g
   id="g125">
</g>
<g
   id="g127">
</g>
<g
   id="g129">
</g>
<g
   id="g131">
</g>
<g
   id="g133">
</g>
<g
   id="g135">
</g>
<g
   id="g137">
</g>
<g
   id="g139">
</g>
<g
   id="g141">
</g>
<g
   id="g143">
</g>
<g
   id="g145">
</g>
<g
   id="g147">
</g>
</svg>
