<?xml version="1.0" encoding="UTF-8" standalone="no"?>
<svg
   xmlns:dc="http://purl.org/dc/elements/1.1/"
   xmlns:cc="http://creativecommons.org/ns#"
   xmlns:rdf="http://www.w3.org/1999/02/22-rdf-syntax-ns#"
   xmlns:svg="http://www.w3.org/2000/svg"
   xmlns="http://www.w3.org/2000/svg"
   xmlns:sodipodi="http://sodipodi.sourceforge.net/DTD/sodipodi-0.dtd"
   xmlns:inkscape="http://www.inkscape.org/namespaces/inkscape"
   inkscape:version="1.0.1 (3bc2e813f5, 2020-09-07)"
   sodipodi:docname="calendar-black.svg"
   version="1.1"
   width="512"
   viewBox="0 0 512 512"
   height="512"
   enable-background="new 0 0 512 512"
   id="Capa_1">
  <metadata
     id="metadata19">
    <rdf:RDF>
      <cc:Work
         rdf:about="">
        <dc:format>image/svg+xml</dc:format>
        <dc:type
           rdf:resource="http://purl.org/dc/dcmitype/StillImage" />
        <dc:title></dc:title>
      </cc:Work>
    </rdf:RDF>
  </metadata>
  <defs
     id="defs17" />
  <sodipodi:namedview
     inkscape:current-layer="Capa_1"
     inkscape:window-maximized="1"
     inkscape:window-y="27"
     inkscape:window-x="0"
     inkscape:cy="256"
     inkscape:cx="256"
     inkscape:zoom="1.6992188"
     showgrid="false"
     id="namedview15"
     inkscape:window-height="1016"
     inkscape:window-width="2560"
     inkscape:pageshadow="2"
     inkscape:pageopacity="0"
     guidetolerance="10"
     gridtolerance="10"
     objecttolerance="10"
     borderopacity="1"
     bordercolor="#666666"
     pagecolor="#ffffff"
     inkscape:document-rotation="0" />
  <g
     style="fill:#212529;fill-opacity:1"
     id="g12">
    <path
       style="fill:#212529;fill-opacity:1"
       id="path2"
       d="m376 120c-16.569 0-30-13.431-30-30v-60c0-16.569 13.431-30 30-30 16.569 0 30 13.431 30 30v60c0 16.569-13.431 30-30 30z" />
    <g
       style="fill:#212529;fill-opacity:1"
       id="g6">
      <path
         style="fill:#212529;fill-opacity:1"
         id="path4"
         d="m457 60h-21v30c0 33.084-26.916 60-60 60s-60-26.916-60-60v-30h-120v30c0 33.084-26.916 60-60 60s-60-26.916-60-60v-30h-21c-30.327 0-55 24.673-55 55v67h512v-67c0-30.327-24.673-55-55-55z" />
    </g>
    <path
       style="fill:#212529;fill-opacity:1"
       id="path8"
       d="m136 120c-16.569 0-30-13.431-30-30v-60c0-16.569 13.431-30 30-30 16.569 0 30 13.431 30 30v60c0 16.569-13.431 30-30 30z" />
    <path
       style="fill:#212529;fill-opacity:1"
       id="path10"
       d="m0 212v245c0 30.327 24.673 55 55 55h402c30.327 0 55-24.673 55-55v-245zm271.764 195c0 33.084-26.916 60-60 60-29.768 0-55.313-22.205-59.423-51.65-.383-2.747-.577-5.556-.577-8.35 0-8.284 6.716-15 15-15s15 6.716 15 15c0 1.412.098 2.826.29 4.204 2.051 14.706 14.824 25.796 29.71 25.796 16.542 0 30-13.458 30-30s-13.458-30-30-30c-8.284 0-15-6.716-15-15s6.716-15 15-15c16.542 0 30-13.458 30-30s-13.458-30-30-30c-14.306 0-26.686 10.165-29.437 24.169-1.598 8.129-9.489 13.423-17.609 11.828-8.129-1.597-13.425-9.481-11.828-17.61 5.506-28.037 30.266-48.387 58.874-48.387 33.084 0 60 26.916 60 60 0 17.908-7.896 33.997-20.377 45 12.481 11.003 20.377 27.092 20.377 45zm88.472 45c0 8.284-6.716 15-15 15s-15-6.716-15-15v-165h-23.473c-8.284 0-15-6.716-15-15s6.716-15 15-15h38.473c8.284 0 15 6.716 15 15z" />
  </g>
</svg>
