<?xml version="1.0" encoding="UTF-8" standalone="no"?>
<svg
   xmlns:dc="http://purl.org/dc/elements/1.1/"
   xmlns:cc="http://creativecommons.org/ns#"
   xmlns:rdf="http://www.w3.org/1999/02/22-rdf-syntax-ns#"
   xmlns:svg="http://www.w3.org/2000/svg"
   xmlns="http://www.w3.org/2000/svg"
   xmlns:sodipodi="http://sodipodi.sourceforge.net/DTD/sodipodi-0.dtd"
   xmlns:inkscape="http://www.inkscape.org/namespaces/inkscape"
   inkscape:version="1.0 (6e3e5246a0, 2020-05-07)"
   sodipodi:docname="false.svg"
   xml:space="preserve"
   style="enable-background:new 0 0 493.456 493.456;"
   viewBox="0 0 493.456 493.456"
   y="0px"
   x="0px"
   id="Layer_1"
   version="1.1"><metadata
   id="metadata43"><rdf:RDF><cc:Work
       rdf:about=""><dc:format>image/svg+xml</dc:format><dc:type
         rdf:resource="http://purl.org/dc/dcmitype/StillImage" /></cc:Work></rdf:RDF></metadata><defs
   id="defs41" /><sodipodi:namedview
   inkscape:current-layer="Layer_1"
   inkscape:window-maximized="1"
   inkscape:window-y="27"
   inkscape:window-x="0"
   inkscape:cy="246.728"
   inkscape:cx="246.728"
   inkscape:zoom="1.7630751"
   showgrid="false"
   id="namedview39"
   inkscape:window-height="1016"
   inkscape:window-width="2560"
   inkscape:pageshadow="2"
   inkscape:pageopacity="0"
   guidetolerance="10"
   gridtolerance="10"
   objecttolerance="10"
   borderopacity="1"
   bordercolor="#666666"
   pagecolor="#ffffff" />
<g
   style="fill:#971507;fill-opacity:1"
   id="g6">
	<g
   style="fill:#971507;fill-opacity:1"
   id="g4">
		<path
   style="fill:#971507;fill-opacity:1"
   id="path2"
   d="M246.73,0C110.682,0,0.002,110.684,0.002,246.744c0,136.032,110.68,246.712,246.728,246.712    s246.724-110.68,246.724-246.712C493.454,110.684,382.778,0,246.73,0z M360.258,348.776l-11.112,11.12    c-2.808,2.836-7.82,2.836-10.644,0l-88.68-88.672c-0.728-0.74-1.704-1.136-2.732-1.136c-1.028,0-2.004,0.4-2.732,1.136    L155.682,359.9c-2.82,2.836-7.828,2.836-10.648,0l-11.108-11.12c-1.412-1.404-2.196-3.304-2.196-5.3    c0-2.02,0.784-3.916,2.196-5.344l88.68-88.672c1.508-1.512,1.508-3.948,0-5.452l-88.68-88.68c-1.412-1.416-2.196-3.308-2.196-5.32    c0-2.02,0.784-3.916,2.196-5.328l11.108-11.108c2.82-2.82,7.828-2.82,10.648,0l88.68,88.672c1.444,1.444,4.016,1.444,5.46,0    l88.676-88.676c2.824-2.824,7.836-2.824,10.644,0l11.112,11.112c2.928,2.924,2.928,7.716,0,10.648l-88.692,88.676    c-1.504,1.504-1.504,3.94,0,5.452l88.696,88.672C363.186,341.072,363.186,345.844,360.258,348.776z" />
	</g>
</g>
<g
   id="g8">
</g>
<g
   id="g10">
</g>
<g
   id="g12">
</g>
<g
   id="g14">
</g>
<g
   id="g16">
</g>
<g
   id="g18">
</g>
<g
   id="g20">
</g>
<g
   id="g22">
</g>
<g
   id="g24">
</g>
<g
   id="g26">
</g>
<g
   id="g28">
</g>
<g
   id="g30">
</g>
<g
   id="g32">
</g>
<g
   id="g34">
</g>
<g
   id="g36">
</g>
</svg>
