<?xml version="1.0" encoding="UTF-8" standalone="no"?>
<svg
   xmlns:dc="http://purl.org/dc/elements/1.1/"
   xmlns:cc="http://creativecommons.org/ns#"
   xmlns:rdf="http://www.w3.org/1999/02/22-rdf-syntax-ns#"
   xmlns:svg="http://www.w3.org/2000/svg"
   xmlns="http://www.w3.org/2000/svg"
   xmlns:sodipodi="http://sodipodi.sourceforge.net/DTD/sodipodi-0.dtd"
   xmlns:inkscape="http://www.inkscape.org/namespaces/inkscape"
   inkscape:version="1.0.1 (3bc2e813f5, 2020-09-07)"
   sodipodi:docname="task-black.svg"
   xml:space="preserve"
   style="enable-background:new 0 0 512 512;"
   viewBox="0 0 512 512"
   y="0px"
   x="0px"
   id="Capa_1"
   version="1.1"><metadata
   id="metadata49"><rdf:RDF><cc:Work
       rdf:about=""><dc:format>image/svg+xml</dc:format><dc:type
         rdf:resource="http://purl.org/dc/dcmitype/StillImage" /><dc:title /></cc:Work></rdf:RDF></metadata><defs
   id="defs47" /><sodipodi:namedview
   inkscape:current-layer="Capa_1"
   inkscape:window-maximized="1"
   inkscape:window-y="27"
   inkscape:window-x="0"
   inkscape:cy="256"
   inkscape:cx="256"
   inkscape:zoom="1.6992188"
   showgrid="false"
   id="namedview45"
   inkscape:window-height="1016"
   inkscape:window-width="2560"
   inkscape:pageshadow="2"
   inkscape:pageopacity="0"
   guidetolerance="10"
   gridtolerance="10"
   objecttolerance="10"
   borderopacity="1"
   bordercolor="#666666"
   pagecolor="#ffffff"
   inkscape:document-rotation="0" />
<g
   style="fill:#212529;fill-opacity:1"
   id="g6">
	<g
   style="fill:#212529;fill-opacity:1"
   id="g4">
		<path
   style="fill:#212529;fill-opacity:1"
   id="path2"
   d="M301,0h-90c-24.814,0-45,20.186-45,45c0,24.814,20.186,45,45,45h90c24.814,0,45-20.186,45-45C346,20.186,325.814,0,301,0z    " />
	</g>
</g>
<g
   style="fill:#212529;fill-opacity:1"
   id="g12"
   transform="translate(4.2029453,0.58850573)">
	<g
   style="fill:#212529;fill-opacity:1"
   id="g10">
		<path
   style="fill:#212529;fill-opacity:1"
   id="path8"
   d="m 406,30 h -31.518 c 0.989,4.849 1.518,9.864 1.518,15 0,41.353 -33.647,75 -75,75 h -90 c -41.353,0 -75,-33.647 -75,-75 0,-5.136 0.529,-10.151 1.518,-15 H 106 C 81.186,30 61,50.186 61,75 v 392 c 0,24.814 20.186,45 45,45 h 300 c 24.814,0 45,-20.186 45,-45 V 75 C 451,50.186 430.814,30 406,30 Z m -199.393,387.606 -45,45 c -5.859,5.859 -15.352,5.859 -21.211,0 l -15,-15 c -5.861,-5.86 -5.861,-15.352 -0.001,-21.211 5.859,-5.859 15.352,-5.859 21.211,0 l 4.395,4.395 34.395,-34.395 c 5.859,-5.859 15.352,-5.859 21.211,0 5.859,5.859 5.859,15.352 0,21.211 z m 0,-121 -45,45 c -5.859,5.859 -15.352,5.859 -21.211,0 l -15,-15 c -5.861,-5.86 -5.861,-15.352 -0.001,-21.211 5.859,-5.859 15.352,-5.859 21.211,0 l 4.395,4.395 34.395,-34.395 c 5.859,-5.859 15.352,-5.859 21.211,0 5.859,5.859 5.859,15.352 0,21.211 z m 0,-121 -45,45 c -2.93,2.93 -6.768,4.395 -10.605,4.395 -3.837,0 -7.676,-1.465 -10.605,-4.395 l -15,-15 c -5.862,-5.86 -5.862,-15.352 -0.002,-21.211 5.859,-5.859 15.352,-5.859 21.211,0 l 4.395,4.395 34.395,-34.395 c 5.859,-5.859 15.352,-5.859 21.211,0 5.859,5.859 5.859,15.352 0,21.211 z M 376,452 H 256 c -8.291,0 -15,-6.709 -15,-15 0,-8.291 6.709,-15 15,-15 h 120 c 8.291,0 15,6.709 15,15 0,8.291 -6.709,15 -15,15 z m 0,-121 H 256 c -8.291,0 -15,-6.709 -15,-15 0,-8.291 6.709,-15 15,-15 h 120 c 8.291,0 15,6.709 15,15 0,8.291 -6.709,15 -15,15 z m 0,-121 H 256 c -8.291,0 -15,-6.709 -15,-15 0,-8.291 6.709,-15 15,-15 h 120 c 8.291,0 15,6.709 15,15 0,8.291 -6.709,15 -15,15 z" />
	</g>
</g>
<g
   id="g14">
</g>
<g
   id="g16">
</g>
<g
   id="g18">
</g>
<g
   id="g20">
</g>
<g
   id="g22">
</g>
<g
   id="g24">
</g>
<g
   id="g26">
</g>
<g
   id="g28">
</g>
<g
   id="g30">
</g>
<g
   id="g32">
</g>
<g
   id="g34">
</g>
<g
   id="g36">
</g>
<g
   id="g38">
</g>
<g
   id="g40">
</g>
<g
   id="g42">
</g>
</svg>
