<?xml version="1.0" encoding="UTF-8" standalone="no"?>
<svg
   xmlns:dc="http://purl.org/dc/elements/1.1/"
   xmlns:cc="http://creativecommons.org/ns#"
   xmlns:rdf="http://www.w3.org/1999/02/22-rdf-syntax-ns#"
   xmlns:svg="http://www.w3.org/2000/svg"
   xmlns="http://www.w3.org/2000/svg"
   xmlns:sodipodi="http://sodipodi.sourceforge.net/DTD/sodipodi-0.dtd"
   xmlns:inkscape="http://www.inkscape.org/namespaces/inkscape"
   inkscape:version="1.0 (6e3e5246a0, 2020-05-07)"
   sodipodi:docname="list.svg"
   xml:space="preserve"
   style="enable-background:new 0 0 512 512;"
   viewBox="0 0 512 512"
   y="0px"
   x="0px"
   id="Capa_1"
   version="1.1"><metadata
   id="metadata49"><rdf:RDF><cc:Work
       rdf:about=""><dc:format>image/svg+xml</dc:format><dc:type
         rdf:resource="http://purl.org/dc/dcmitype/StillImage" /></cc:Work></rdf:RDF></metadata><defs
   id="defs47" /><sodipodi:namedview
   inkscape:current-layer="Capa_1"
   inkscape:window-maximized="1"
   inkscape:window-y="27"
   inkscape:window-x="0"
   inkscape:cy="256"
   inkscape:cx="256"
   inkscape:zoom="1.6992188"
   showgrid="false"
   id="namedview45"
   inkscape:window-height="1016"
   inkscape:window-width="2560"
   inkscape:pageshadow="2"
   inkscape:pageopacity="0"
   guidetolerance="10"
   gridtolerance="10"
   objecttolerance="10"
   borderopacity="1"
   bordercolor="#666666"
   pagecolor="#ffffff" />
<g
   style="fill:#ffffff"
   id="g6">
	<g
   style="fill:#ffffff"
   id="g4">
		<path
   style="fill:#ffffff"
   id="path2"
   d="M301,0h-90c-24.814,0-45,20.186-45,45c0,24.814,20.186,45,45,45h90c24.814,0,45-20.186,45-45C346,20.186,325.814,0,301,0z    " />
	</g>
</g>
<g
   style="fill:#ffffff"
   id="g12">
	<g
   style="fill:#ffffff"
   id="g10">
		<path
   style="fill:#ffffff"
   id="path8"
   d="M406,30h-31.518c0.989,4.849,1.518,9.864,1.518,15c0,41.353-33.647,75-75,75h-90c-41.353,0-75-33.647-75-75    c0-5.136,0.529-10.151,1.518-15H106c-24.814,0-45,20.186-45,45v392c0,24.814,20.186,45,45,45h300c24.814,0,45-20.186,45-45V75    C451,50.186,430.814,30,406,30z M206.607,417.606l-45,45c-5.859,5.859-15.352,5.859-21.211,0l-15-15    c-5.861-5.86-5.861-15.352-0.001-21.211c5.859-5.859,15.352-5.859,21.211,0l4.395,4.395l34.395-34.395    c5.859-5.859,15.352-5.859,21.211,0C212.466,402.254,212.466,411.747,206.607,417.606z M206.607,296.606l-45,45    c-5.859,5.859-15.352,5.859-21.211,0l-15-15c-5.861-5.86-5.861-15.352-0.001-21.211c5.859-5.859,15.352-5.859,21.211,0    l4.395,4.395l34.395-34.395c5.859-5.859,15.352-5.859,21.211,0C212.466,281.254,212.466,290.747,206.607,296.606z     M206.607,175.606l-45,45c-2.93,2.93-6.768,4.395-10.605,4.395s-7.676-1.465-10.605-4.395l-15-15    c-5.862-5.86-5.862-15.352-0.002-21.211c5.859-5.859,15.352-5.859,21.211,0l4.395,4.395l34.395-34.395    c5.859-5.859,15.352-5.859,21.211,0C212.466,160.254,212.466,169.747,206.607,175.606z M376,452H256c-8.291,0-15-6.709-15-15    c0-8.291,6.709-15,15-15h120c8.291,0,15,6.709,15,15C391,445.291,384.291,452,376,452z M376,331H256c-8.291,0-15-6.709-15-15    c0-8.291,6.709-15,15-15h120c8.291,0,15,6.709,15,15C391,324.291,384.291,331,376,331z M376,210H256c-8.291,0-15-6.709-15-15    s6.709-15,15-15h120c8.291,0,15,6.709,15,15S384.291,210,376,210z" />
	</g>
</g>
<g
   id="g14">
</g>
<g
   id="g16">
</g>
<g
   id="g18">
</g>
<g
   id="g20">
</g>
<g
   id="g22">
</g>
<g
   id="g24">
</g>
<g
   id="g26">
</g>
<g
   id="g28">
</g>
<g
   id="g30">
</g>
<g
   id="g32">
</g>
<g
   id="g34">
</g>
<g
   id="g36">
</g>
<g
   id="g38">
</g>
<g
   id="g40">
</g>
<g
   id="g42">
</g>
</svg>
