<?xml version="1.0" encoding="UTF-8" standalone="no"?>
<svg
   xmlns:dc="http://purl.org/dc/elements/1.1/"
   xmlns:cc="http://creativecommons.org/ns#"
   xmlns:rdf="http://www.w3.org/1999/02/22-rdf-syntax-ns#"
   xmlns:svg="http://www.w3.org/2000/svg"
   xmlns="http://www.w3.org/2000/svg"
   xmlns:sodipodi="http://sodipodi.sourceforge.net/DTD/sodipodi-0.dtd"
   xmlns:inkscape="http://www.inkscape.org/namespaces/inkscape"
   inkscape:version="1.0 (6e3e5246a0, 2020-05-07)"
   sodipodi:docname="true.svg"
   xml:space="preserve"
   style="enable-background:new 0 0 493.464 493.464;"
   viewBox="0 0 493.464 493.464"
   y="0px"
   x="0px"
   id="Layer_1"
   version="1.1"><metadata
   id="metadata43"><rdf:RDF><cc:Work
       rdf:about=""><dc:format>image/svg+xml</dc:format><dc:type
         rdf:resource="http://purl.org/dc/dcmitype/StillImage" /></cc:Work></rdf:RDF></metadata><defs
   id="defs41" /><sodipodi:namedview
   inkscape:current-layer="Layer_1"
   inkscape:window-maximized="1"
   inkscape:window-y="27"
   inkscape:window-x="0"
   inkscape:cy="246.73199"
   inkscape:cx="246.73199"
   inkscape:zoom="1.7630466"
   showgrid="false"
   id="namedview39"
   inkscape:window-height="1016"
   inkscape:window-width="2560"
   inkscape:pageshadow="2"
   inkscape:pageopacity="0"
   guidetolerance="10"
   gridtolerance="10"
   objecttolerance="10"
   borderopacity="1"
   bordercolor="#666666"
   pagecolor="#ffffff" />
<g
   style="fill:#05721d;fill-opacity:1"
   id="g6">
	<g
   style="fill:#05721d;fill-opacity:1"
   id="g4">
		<path
   style="fill:#05721d;fill-opacity:1"
   id="path2"
   d="M246.736,0C110.692,0,0.004,110.68,0.004,246.732c0,136.06,110.688,246.732,246.732,246.732    c136.048,0,246.724-110.672,246.724-246.732C493.456,110.68,382.78,0,246.736,0z M360.524,208.716L230.98,338.268    c-2.82,2.824-7.816,2.824-10.64,0l-86.908-86.912c-1.412-1.416-2.192-3.3-2.192-5.324c0.004-2.016,0.784-3.912,2.192-5.336    l11.108-11.104c1.412-1.408,3.3-2.18,5.328-2.18c2.016,0,3.908,0.772,5.316,2.18l67.752,67.752c1.5,1.516,3.94,1.516,5.444,0    l110.392-110.392c2.824-2.824,7.828-2.824,10.644,0l11.108,11.124c1.412,1.4,2.208,3.304,2.208,5.308    C362.732,205.412,361.936,207.3,360.524,208.716z" />
	</g>
</g>
<g
   id="g8">
</g>
<g
   id="g10">
</g>
<g
   id="g12">
</g>
<g
   id="g14">
</g>
<g
   id="g16">
</g>
<g
   id="g18">
</g>
<g
   id="g20">
</g>
<g
   id="g22">
</g>
<g
   id="g24">
</g>
<g
   id="g26">
</g>
<g
   id="g28">
</g>
<g
   id="g30">
</g>
<g
   id="g32">
</g>
<g
   id="g34">
</g>
<g
   id="g36">
</g>
</svg>
