<?xml version="1.0" encoding="UTF-8" standalone="no"?>
<svg
   xmlns:dc="http://purl.org/dc/elements/1.1/"
   xmlns:cc="http://creativecommons.org/ns#"
   xmlns:rdf="http://www.w3.org/1999/02/22-rdf-syntax-ns#"
   xmlns:svg="http://www.w3.org/2000/svg"
   xmlns="http://www.w3.org/2000/svg"
   xmlns:sodipodi="http://sodipodi.sourceforge.net/DTD/sodipodi-0.dtd"
   xmlns:inkscape="http://www.inkscape.org/namespaces/inkscape"
   inkscape:version="1.0 (6e3e5246a0, 2020-05-07)"
   sodipodi:docname="stock.svg"
   id="svg10"
   version="1.1"
   width="512"
   viewBox="0 0 24 24"
   height="512"
   enable-background="new 0 0 24 24">
  <metadata
     id="metadata16">
    <rdf:RDF>
      <cc:Work
         rdf:about="">
        <dc:format>image/svg+xml</dc:format>
        <dc:type
           rdf:resource="http://purl.org/dc/dcmitype/StillImage" />
      </cc:Work>
    </rdf:RDF>
  </metadata>
  <defs
     id="defs14" />
  <sodipodi:namedview
     inkscape:current-layer="svg10"
     inkscape:window-maximized="1"
     inkscape:window-y="27"
     inkscape:window-x="0"
     inkscape:cy="256"
     inkscape:cx="256"
     inkscape:zoom="1.6992188"
     showgrid="false"
     id="namedview12"
     inkscape:window-height="1016"
     inkscape:window-width="2560"
     inkscape:pageshadow="2"
     inkscape:pageopacity="0"
     guidetolerance="10"
     gridtolerance="10"
     objecttolerance="10"
     borderopacity="1"
     bordercolor="#666666"
     pagecolor="#ffffff" />
  <path
     style="fill:#ffffff"
     id="path2"
     d="m22 6.769v-6.019c0-.414-.336-.75-.75-.75h-2.5c-.414 0-.75.336-.75.75v2.34c-1.767-1.005-3.813-1.59-6-1.59-6.625 0-12.013 5.284-12 11.773.001.405.346.727.75.727h1.25v9c0 .552.448 1 1 1h1v-12h16v12h1c.552 0 1-.448 1-1v-9h1.25c.404 0 .749-.323.75-.727.005-2.403-.735-4.639-2-6.504z" />
  <path
     style="fill:#ffffff"
     id="path4"
     d="m9.25 19v.75c0 .414-.336.75-.75.75s-.75-.336-.75-.75v-.75h-1.75c-.276 0-.5.224-.5.5v4c0 .276.224.5.5.5h5c.276 0 .5-.224.5-.5v-4c0-.276-.224-.5-.5-.5z" />
  <path
     style="fill:#ffffff"
     id="path6"
     d="m16.25 19v.75c0 .414-.336.75-.75.75s-.75-.336-.75-.75v-.75h-1.75c-.276 0-.5.224-.5.5v4c0 .276.224.5.5.5h5c.276 0 .5-.224.5-.5v-4c0-.276-.224-.5-.5-.5z" />
  <path
     style="fill:#ffffff"
     id="path8"
     d="m12.75 13v.75c0 .414-.336.75-.75.75s-.75-.336-.75-.75v-.75h-1.75c-.276 0-.5.224-.5.5v4c0 .276.224.5.5.5h5c.276 0 .5-.224.5-.5v-4c0-.276-.224-.5-.5-.5z" />
</svg>
